<svg xmlns="http://www.w3.org/2000/svg" width="802" height="194" viewBox="0 0 802 194" role="img" aria-label="832 contributions in the last year">
  <rect x="0.5" y="0.5" width="801" height="193" rx="10" fill="#0a0f0a" stroke="#1f3a1f"/>
  <g font-family="'JetBrains Mono','Fira Code','Cascadia Code',Consolas,'DejaVu Sans Mono',monospace" font-size="12">
    <text x="18" y="24"><tspan fill="#ffb000">$</tspan><tspan fill="#7dff7d"> git log --author=Gustavobaldwin --since="1 year" | heatmap</tspan></text>
    <text x="784" y="24" fill="#4fbf4f" text-anchor="end">832 contributions</text>
  </g>
  <g font-family="'JetBrains Mono','Fira Code','Cascadia Code',Consolas,'DejaVu Sans Mono',monospace" font-size="10">
    <text x="44" y="54" fill="#2f6b2f">sep</text><text x="114" y="54" fill="#2f6b2f">nov</text><text x="184" y="54" fill="#2f6b2f">dec</text><text x="240" y="54" fill="#2f6b2f">jan</text><text x="296" y="54" fill="#2f6b2f">feb</text><text x="352" y="54" fill="#2f6b2f">mar</text><text x="422" y="54" fill="#2f6b2f">apr</text><text x="478" y="54" fill="#2f6b2f">may</text><text x="548" y="54" fill="#2f6b2f">jun</text><text x="604" y="54" fill="#2f6b2f">jul</text><text x="660" y="54" fill="#2f6b2f">aug</text><text x="730" y="54" fill="#2f6b2f">sep</text>
    <text x="36" y="85" fill="#2f6b2f" text-anchor="end">mon</text><text x="36" y="113" fill="#2f6b2f" text-anchor="end">wed</text><text x="36" y="141" fill="#2f6b2f" text-anchor="end">fri</text>
    <text x="650" y="179" fill="#2f6b2f">less</text>
    <text x="754" y="179" fill="#2f6b2f">more</text>
    <text x="18" y="179" fill="#2f6b2f">updated 2026-09-30</text>
  </g>
  <rect x="680" y="170" width="11" height="11" rx="2" fill="#122012"/><rect x="694" y="170" width="11" height="11" rx="2" fill="#1e4d1e"/><rect x="708" y="170" width="11" height="11" rx="2" fill="#2f7d2f"/><rect x="722" y="170" width="11" height="11" rx="2" fill="#4fbf4f"/><rect x="736" y="170" width="11" height="11" rx="2" fill="#7dff7d"/>
  <rect x="44" y="62" width="11" height="11" rx="2" fill="#4fbf4f"><title>2025-09-28: 5</title></rect><rect x="44" y="76" width="11" height="11" rx="2" fill="#4fbf4f"><title>2025-09-29: 5</title></rect><rect x="44" y="90" width="11" height="11" rx="2" fill="#122012"><title>2025-09-30: 0</title></rect><rect x="44" y="104" width="11" height="11" rx="2" fill="#7dff7d"><title>2025-10-01: 8</title></rect><rect x="44" y="118" width="11" height="11" rx="2" fill="#2f7d2f"><title>2025-10-02: 3</title></rect><rect x="44" y="132" width="11" height="11" rx="2" fill="#7dff7d"><title>2025-10-03: 8</title></rect><rect x="44" y="146" width="11" height="11" rx="2" fill="#1e4d1e"><title>2025-10-04: 2</title></rect><rect x="58" y="62" width="11" height="11" rx="2" fill="#2f7d2f"><title>2025-10-05: 3</title></rect><rect x="58" y="76" width="11" height="11" rx="2" fill="#1e4d1e"><title>2025-10-06: 2</title></rect><rect x="58" y="90" width="11" height="11" rx="2" fill="#1e4d1e"><title>2025-10-07: 2</title></rect><rect x="58" y="104" width="11" height="11" rx="2" fill="#1e4d1e"><title>2025-10-08: 2</title></rect><rect x="58" y="118" width="11" height="11" rx="2" fill="#1e4d1e"><title>2025-10-09: 2</title></rect><rect x="58" y="132" width="11" height="11" rx="2" fill="#122012"><title>2025-10-10: 0</title></rect><rect x="58" y="146" width="11" height="11" rx="2" fill="#122012"><title>2025-10-11: 0</title></rect><rect x="72" y="62" width="11" height="11" rx="2" fill="#7dff7d"><title>2025-10-12: 8</title></rect><rect x="72" y="76" width="11" height="11" rx="2" fill="#122012"><title>2025-10-13: 0</title></rect><rect x="72" y="90" width="11" height="11" rx="2" fill="#4fbf4f"><title>2025-10-14: 5</title></rect><rect x="72" y="104" width="11" height="11" rx="2" fill="#1e4d1e"><title>2025-10-15: 1</title></rect><rect x="72" y="118" width="11" height="11" rx="2" fill="#1e4d1e"><title>2025-10-16: 1</title></rect><rect x="72" y="132" width="11" height="11" rx="2" fill="#2f7d2f"><title>2025-10-17: 3</title></rect><rect x="72" y="146" width="11" height="11" rx="2" fill="#122012"><title>2025-10-18: 0</title></rect><rect x="86" y="62" width="11" height="11" rx="2" fill="#122012"><title>2025-10-19: 0</title></rect><rect x="86" y="76" width="11" height="11" rx="2" fill="#122012"><title>2025-10-20: 0</title></rect><rect x="86" y="90" width="11" height="11" rx="2" fill="#7dff7d"><title>2025-10-21: 8</title></rect><rect x="86" y="104" width="11" height="11" rx="2" fill="#1e4d1e"><title>2025-10-22: 2</title></rect><rect x="86" y="118" width="11" height="11" rx="2" fill="#4fbf4f"><title>2025-10-23: 5</title></rect><rect x="86" y="132" width="11" height="11" rx="2" fill="#2f7d2f"><title>2025-10-24: 3</title></rect><rect x="86" y="146" width="11" height="11" rx="2" fill="#1e4d1e"><title>2025-10-25: 1</title></rect><rect x="100" y="62" width="11" height="11" rx="2" fill="#7dff7d"><title>2025-10-26: 8</title></rect><rect x="100" y="76" width="11" height="11" rx="2" fill="#2f7d2f"><title>2025-10-27: 3</title></rect><rect x="100" y="90" width="11" height="11" rx="2" fill="#122012"><title>2025-10-28: 0</title></rect><rect x="100" y="104" width="11" height="11" rx="2" fill="#122012"><title>2025-10-29: 0</title></rect><rect x="100" y="118" width="11" height="11" rx="2" fill="#2f7d2f"><title>2025-10-30: 3</title></rect><rect x="100" y="132" width="11" height="11" rx="2" fill="#1e4d1e"><title>2025-10-31: 2</title></rect><rect x="100" y="146" width="11" height="11" rx="2" fill="#1e4d1e"><title>2025-11-01: 2</title></rect><rect x="114" y="62" width="11" height="11" rx="2" fill="#1e4d1e"><title>2025-11-02: 1</title></rect><rect x="114" y="76" width="11" height="11" rx="2" fill="#4fbf4f"><title>2025-11-03: 5</title></rect><rect x="114" y="90" width="11" height="11" rx="2" fill="#7dff7d"><title>2025-11-04: 8</title></rect><rect x="114" y="104" width="11" height="11" rx="2" fill="#7dff7d"><title>2025-11-05: 8</title></rect><rect x="114" y="118" width="11" height="11" rx="2" fill="#2f7d2f"><title>2025-11-06: 3</title></rect><rect x="114" y="132" width="11" height="11" rx="2" fill="#7dff7d"><title>2025-11-07: 8</title></rect><rect x="114" y="146" width="11" height="11" rx="2" fill="#122012"><title>2025-11-08: 0</title></rect><rect x="128" y="62" width="11" height="11" rx="2" fill="#1e4d1e"><title>2025-11-09: 1</title></rect><rect x="128" y="76" width="11" height="11" rx="2" fill="#122012"><title>2025-11-10: 0</title></rect><rect x="128" y="90" width="11" height="11" rx="2" fill="#122012"><title>2025-11-11: 0</title></rect><rect x="128" y="104" width="11" height="11" rx="2" fill="#7dff7d"><title>2025-11-12: 8</title></rect><rect x="128" y="118" width="11" height="11" rx="2" fill="#1e4d1e"><title>2025-11-13: 2</title></rect><rect x="128" y="132" width="11" height="11" rx="2" fill="#1e4d1e"><title>2025-11-14: 1</title></rect><rect x="128" y="146" width="11" height="11" rx="2" fill="#2f7d2f"><title>2025-11-15: 3</title></rect><rect x="142" y="62" width="11" height="11" rx="2" fill="#2f7d2f"><title>2025-11-16: 3</title></rect><rect x="142" y="76" width="11" height="11" rx="2" fill="#4fbf4f"><title>2025-11-17: 5</title></rect><rect x="142" y="90" width="11" height="11" rx="2" fill="#7dff7d"><title>2025-11-18: 8</title></rect><rect x="142" y="104" width="11" height="11" rx="2" fill="#122012"><title>2025-11-19: 0</title></rect><rect x="142" y="118" width="11" height="11" rx="2" fill="#1e4d1e"><title>2025-11-20: 1</title></rect><rect x="142" y="132" width="11" height="11" rx="2" fill="#122012"><title>2025-11-21: 0</title></rect><rect x="142" y="146" width="11" height="11" rx="2" fill="#1e4d1e"><title>2025-11-22: 2</title></rect><rect x="156" y="62" width="11" height="11" rx="2" fill="#1e4d1e"><title>2025-11-23: 2</title></rect><rect x="156" y="76" width="11" height="11" rx="2" fill="#122012"><title>2025-11-24: 0</title></rect><rect x="156" y="90" width="11" height="11" rx="2" fill="#122012"><title>2025-11-25: 0</title></rect><rect x="156" y="104" width="11" height="11" rx="2" fill="#122012"><title>2025-11-26: 0</title></rect><rect x="156" y="118" width="11" height="11" rx="2" fill="#1e4d1e"><title>2025-11-27: 1</title></rect><rect x="156" y="132" width="11" height="11" rx="2" fill="#2f7d2f"><title>2025-11-28: 3</title></rect><rect x="156" y="146" width="11" height="11" rx="2" fill="#7dff7d"><title>2025-11-29: 8</title></rect><rect x="170" y="62" width="11" height="11" rx="2" fill="#2f7d2f"><title>2025-11-30: 3</title></rect><rect x="170" y="76" width="11" height="11" rx="2" fill="#4fbf4f"><title>2025-12-01: 5</title></rect><rect x="170" y="90" width="11" height="11" rx="2" fill="#122012"><title>2025-12-02: 0</title></rect><rect x="170" y="104" width="11" height="11" rx="2" fill="#1e4d1e"><title>2025-12-03: 2</title></rect><rect x="170" y="118" width="11" height="11" rx="2" fill="#122012"><title>2025-12-04: 0</title></rect><rect x="170" y="132" width="11" height="11" rx="2" fill="#1e4d1e"><title>2025-12-05: 2</title></rect><rect x="170" y="146" width="11" height="11" rx="2" fill="#122012"><title>2025-12-06: 0</title></rect><rect x="184" y="62" width="11" height="11" rx="2" fill="#122012"><title>2025-12-07: 0</title></rect><rect x="184" y="76" width="11" height="11" rx="2" fill="#122012"><title>2025-12-08: 0</title></rect><rect x="184" y="90" width="11" height="11" rx="2" fill="#2f7d2f"><title>2025-12-09: 3</title></rect><rect x="184" y="104" width="11" height="11" rx="2" fill="#122012"><title>2025-12-10: 0</title></rect><rect x="184" y="118" width="11" height="11" rx="2" fill="#122012"><title>2025-12-11: 0</title></rect><rect x="184" y="132" width="11" height="11" rx="2" fill="#1e4d1e"><title>2025-12-12: 1</title></rect><rect x="184" y="146" width="11" height="11" rx="2" fill="#122012"><title>2025-12-13: 0</title></rect><rect x="198" y="62" width="11" height="11" rx="2" fill="#122012"><title>2025-12-14: 0</title></rect><rect x="198" y="76" width="11" height="11" rx="2" fill="#2f7d2f"><title>2025-12-15: 3</title></rect><rect x="198" y="90" width="11" height="11" rx="2" fill="#122012"><title>2025-12-16: 0</title></rect><rect x="198" y="104" width="11" height="11" rx="2" fill="#122012"><title>2025-12-17: 0</title></rect><rect x="198" y="118" width="11" height="11" rx="2" fill="#122012"><title>2025-12-18: 0</title></rect><rect x="198" y="132" width="11" height="11" rx="2" fill="#122012"><title>2025-12-19: 0</title></rect><rect x="198" y="146" width="11" height="11" rx="2" fill="#1e4d1e"><title>2025-12-20: 2</title></rect><rect x="212" y="62" width="11" height="11" rx="2" fill="#122012"><title>2025-12-21: 0</title></rect><rect x="212" y="76" width="11" height="11" rx="2" fill="#1e4d1e"><title>2025-12-22: 1</title></rect><rect x="212" y="90" width="11" height="11" rx="2" fill="#122012"><title>2025-12-23: 0</title></rect><rect x="212" y="104" width="11" height="11" rx="2" fill="#2f7d2f"><title>2025-12-24: 3</title></rect><rect x="212" y="118" width="11" height="11" rx="2" fill="#122012"><title>2025-12-25: 0</title></rect><rect x="212" y="132" width="11" height="11" rx="2" fill="#122012"><title>2025-12-26: 0</title></rect><rect x="212" y="146" width="11" height="11" rx="2" fill="#4fbf4f"><title>2025-12-27: 5</title></rect><rect x="226" y="62" width="11" height="11" rx="2" fill="#122012"><title>2025-12-28: 0</title></rect><rect x="226" y="76" width="11" height="11" rx="2" fill="#1e4d1e"><title>2025-12-29: 2</title></rect><rect x="226" y="90" width="11" height="11" rx="2" fill="#122012"><title>2025-12-30: 0</title></rect><rect x="226" y="104" width="11" height="11" rx="2" fill="#1e4d1e"><title>2025-12-31: 2</title></rect><rect x="226" y="118" width="11" height="11" rx="2" fill="#1e4d1e"><title>2026-01-01: 1</title></rect><rect x="226" y="132" width="11" height="11" rx="2" fill="#1e4d1e"><title>2026-01-02: 1</title></rect><rect x="226" y="146" width="11" height="11" rx="2" fill="#4fbf4f"><title>2026-01-03: 5</title></rect><rect x="240" y="62" width="11" height="11" rx="2" fill="#4fbf4f"><title>2026-01-04: 5</title></rect><rect x="240" y="76" width="11" height="11" rx="2" fill="#1e4d1e"><title>2026-01-05: 1</title></rect><rect x="240" y="90" width="11" height="11" rx="2" fill="#2f7d2f"><title>2026-01-06: 3</title></rect><rect x="240" y="104" width="11" height="11" rx="2" fill="#122012"><title>2026-01-07: 0</title></rect><rect x="240" y="118" width="11" height="11" rx="2" fill="#122012"><title>2026-01-08: 0</title></rect><rect x="240" y="132" width="11" height="11" rx="2" fill="#7dff7d"><title>2026-01-09: 8</title></rect><rect x="240" y="146" width="11" height="11" rx="2" fill="#122012"><title>2026-01-10: 0</title></rect><rect x="254" y="62" width="11" height="11" rx="2" fill="#7dff7d"><title>2026-01-11: 8</title></rect><rect x="254" y="76" width="11" height="11" rx="2" fill="#122012"><title>2026-01-12: 0</title></rect><rect x="254" y="90" width="11" height="11" rx="2" fill="#122012"><title>2026-01-13: 0</title></rect><rect x="254" y="104" width="11" height="11" rx="2" fill="#122012"><title>2026-01-14: 0</title></rect><rect x="254" y="118" width="11" height="11" rx="2" fill="#7dff7d"><title>2026-01-15: 8</title></rect><rect x="254" y="132" width="11" height="11" rx="2" fill="#1e4d1e"><title>2026-01-16: 1</title></rect><rect x="254" y="146" width="11" height="11" rx="2" fill="#122012"><title>2026-01-17: 0</title></rect><rect x="268" y="62" width="11" height="11" rx="2" fill="#122012"><title>2026-01-18: 0</title></rect><rect x="268" y="76" width="11" height="11" rx="2" fill="#1e4d1e"><title>2026-01-19: 1</title></rect><rect x="268" y="90" width="11" height="11" rx="2" fill="#122012"><title>2026-01-20: 0</title></rect><rect x="268" y="104" width="11" height="11" rx="2" fill="#7dff7d"><title>2026-01-21: 8</title></rect><rect x="268" y="118" width="11" height="11" rx="2" fill="#122012"><title>2026-01-22: 0</title></rect><rect x="268" y="132" width="11" height="11" rx="2" fill="#122012"><title>2026-01-23: 0</title></rect><rect x="268" y="146" width="11" height="11" rx="2" fill="#122012"><title>2026-01-24: 0</title></rect><rect x="282" y="62" width="11" height="11" rx="2" fill="#122012"><title>2026-01-25: 0</title></rect><rect x="282" y="76" width="11" height="11" rx="2" fill="#1e4d1e"><title>2026-01-26: 1</title></rect><rect x="282" y="90" width="11" height="11" rx="2" fill="#1e4d1e"><title>2026-01-27: 2</title></rect><rect x="282" y="104" width="11" height="11" rx="2" fill="#4fbf4f"><title>2026-01-28: 5</title></rect><rect x="282" y="118" width="11" height="11" rx="2" fill="#122012"><title>2026-01-29: 0</title></rect><rect x="282" y="132" width="11" height="11" rx="2" fill="#122012"><title>2026-01-30: 0</title></rect><rect x="282" y="146" width="11" height="11" rx="2" fill="#122012"><title>2026-01-31: 0</title></rect><rect x="296" y="62" width="11" height="11" rx="2" fill="#1e4d1e"><title>2026-02-01: 1</title></rect><rect x="296" y="76" width="11" height="11" rx="2" fill="#1e4d1e"><title>2026-02-02: 1</title></rect><rect x="296" y="90" width="11" height="11" rx="2" fill="#7dff7d"><title>2026-02-03: 8</title></rect><rect x="296" y="104" width="11" height="11" rx="2" fill="#122012"><title>2026-02-04: 0</title></rect><rect x="296" y="118" width="11" height="11" rx="2" fill="#122012"><title>2026-02-05: 0</title></rect><rect x="296" y="132" width="11" height="11" rx="2" fill="#2f7d2f"><title>2026-02-06: 3</title></rect><rect x="296" y="146" width="11" height="11" rx="2" fill="#4fbf4f"><title>2026-02-07: 5</title></rect><rect x="310" y="62" width="11" height="11" rx="2" fill="#4fbf4f"><title>2026-02-08: 5</title></rect><rect x="310" y="76" width="11" height="11" rx="2" fill="#122012"><title>2026-02-09: 0</title></rect><rect x="310" y="90" width="11" height="11" rx="2" fill="#122012"><title>2026-02-10: 0</title></rect><rect x="310" y="104" width="11" height="11" rx="2" fill="#2f7d2f"><title>2026-02-11: 3</title></rect><rect x="310" y="118" width="11" height="11" rx="2" fill="#122012"><title>2026-02-12: 0</title></rect><rect x="310" y="132" width="11" height="11" rx="2" fill="#122012"><title>2026-02-13: 0</title></rect><rect x="310" y="146" width="11" height="11" rx="2" fill="#122012"><title>2026-02-14: 0</title></rect><rect x="324" y="62" width="11" height="11" rx="2" fill="#2f7d2f"><title>2026-02-15: 3</title></rect><rect x="324" y="76" width="11" height="11" rx="2" fill="#122012"><title>2026-02-16: 0</title></rect><rect x="324" y="90" width="11" height="11" rx="2" fill="#122012"><title>2026-02-17: 0</title></rect><rect x="324" y="104" width="11" height="11" rx="2" fill="#122012"><title>2026-02-18: 0</title></rect><rect x="324" y="118" width="11" height="11" rx="2" fill="#2f7d2f"><title>2026-02-19: 3</title></rect><rect x="324" y="132" width="11" height="11" rx="2" fill="#2f7d2f"><title>2026-02-20: 3</title></rect><rect x="324" y="146" width="11" height="11" rx="2" fill="#122012"><title>2026-02-21: 0</title></rect><rect x="338" y="62" width="11" height="11" rx="2" fill="#2f7d2f"><title>2026-02-22: 3</title></rect><rect x="338" y="76" width="11" height="11" rx="2" fill="#1e4d1e"><title>2026-02-23: 2</title></rect><rect x="338" y="90" width="11" height="11" rx="2" fill="#7dff7d"><title>2026-02-24: 8</title></rect><rect x="338" y="104" width="11" height="11" rx="2" fill="#1e4d1e"><title>2026-02-25: 2</title></rect><rect x="338" y="118" width="11" height="11" rx="2" fill="#122012"><title>2026-02-26: 0</title></rect><rect x="338" y="132" width="11" height="11" rx="2" fill="#2f7d2f"><title>2026-02-27: 3</title></rect><rect x="338" y="146" width="11" height="11" rx="2" fill="#2f7d2f"><title>2026-02-28: 3</title></rect><rect x="352" y="62" width="11" height="11" rx="2" fill="#122012"><title>2026-03-01: 0</title></rect><rect x="352" y="76" width="11" height="11" rx="2" fill="#2f7d2f"><title>2026-03-02: 3</title></rect><rect x="352" y="90" width="11" height="11" rx="2" fill="#2f7d2f"><title>2026-03-03: 3</title></rect><rect x="352" y="104" width="11" height="11" rx="2" fill="#4fbf4f"><title>2026-03-04: 5</title></rect><rect x="352" y="118" width="11" height="11" rx="2" fill="#122012"><title>2026-03-05: 0</title></rect><rect x="352" y="132" width="11" height="11" rx="2" fill="#2f7d2f"><title>2026-03-06: 3</title></rect><rect x="352" y="146" width="11" height="11" rx="2" fill="#122012"><title>2026-03-07: 0</title></rect><rect x="366" y="62" width="11" height="11" rx="2" fill="#2f7d2f"><title>2026-03-08: 3</title></rect><rect x="366" y="76" width="11" height="11" rx="2" fill="#122012"><title>2026-03-09: 0</title></rect><rect x="366" y="90" width="11" height="11" rx="2" fill="#1e4d1e"><title>2026-03-10: 1</title></rect><rect x="366" y="104" width="11" height="11" rx="2" fill="#7dff7d"><title>2026-03-11: 8</title></rect><rect x="366" y="118" width="11" height="11" rx="2" fill="#1e4d1e"><title>2026-03-12: 1</title></rect><rect x="366" y="132" width="11" height="11" rx="2" fill="#122012"><title>2026-03-13: 0</title></rect><rect x="366" y="146" width="11" height="11" rx="2" fill="#7dff7d"><title>2026-03-14: 8</title></rect><rect x="380" y="62" width="11" height="11" rx="2" fill="#4fbf4f"><title>2026-03-15: 5</title></rect><rect x="380" y="76" width="11" height="11" rx="2" fill="#1e4d1e"><title>2026-03-16: 2</title></rect><rect x="380" y="90" width="11" height="11" rx="2" fill="#7dff7d"><title>2026-03-17: 8</title></rect><rect x="380" y="104" width="11" height="11" rx="2" fill="#7dff7d"><title>2026-03-18: 8</title></rect><rect x="380" y="118" width="11" height="11" rx="2" fill="#4fbf4f"><title>2026-03-19: 5</title></rect><rect x="380" y="132" width="11" height="11" rx="2" fill="#122012"><title>2026-03-20: 0</title></rect><rect x="380" y="146" width="11" height="11" rx="2" fill="#122012"><title>2026-03-21: 0</title></rect><rect x="394" y="62" width="11" height="11" rx="2" fill="#4fbf4f"><title>2026-03-22: 5</title></rect><rect x="394" y="76" width="11" height="11" rx="2" fill="#4fbf4f"><title>2026-03-23: 5</title></rect><rect x="394" y="90" width="11" height="11" rx="2" fill="#122012"><title>2026-03-24: 0</title></rect><rect x="394" y="104" width="11" height="11" rx="2" fill="#122012"><title>2026-03-25: 0</title></rect><rect x="394" y="118" width="11" height="11" rx="2" fill="#122012"><title>2026-03-26: 0</title></rect><rect x="394" y="132" width="11" height="11" rx="2" fill="#1e4d1e"><title>2026-03-27: 1</title></rect><rect x="394" y="146" width="11" height="11" rx="2" fill="#122012"><title>2026-03-28: 0</title></rect><rect x="408" y="62" width="11" height="11" rx="2" fill="#2f7d2f"><title>2026-03-29: 3</title></rect><rect x="408" y="76" width="11" height="11" rx="2" fill="#122012"><title>2026-03-30: 0</title></rect><rect x="408" y="90" width="11" height="11" rx="2" fill="#7dff7d"><title>2026-03-31: 8</title></rect><rect x="408" y="104" width="11" height="11" rx="2" fill="#4fbf4f"><title>2026-04-01: 5</title></rect><rect x="408" y="118" width="11" height="11" rx="2" fill="#122012"><title>2026-04-02: 0</title></rect><rect x="408" y="132" width="11" height="11" rx="2" fill="#122012"><title>2026-04-03: 0</title></rect><rect x="408" y="146" width="11" height="11" rx="2" fill="#1e4d1e"><title>2026-04-04: 2</title></rect><rect x="422" y="62" width="11" height="11" rx="2" fill="#122012"><title>2026-04-05: 0</title></rect><rect x="422" y="76" width="11" height="11" rx="2" fill="#1e4d1e"><title>2026-04-06: 1</title></rect><rect x="422" y="90" width="11" height="11" rx="2" fill="#122012"><title>2026-04-07: 0</title></rect><rect x="422" y="104" width="11" height="11" rx="2" fill="#1e4d1e"><title>2026-04-08: 2</title></rect><rect x="422" y="118" width="11" height="11" rx="2" fill="#1e4d1e"><title>2026-04-09: 2</title></rect><rect x="422" y="132" width="11" height="11" rx="2" fill="#7dff7d"><title>2026-04-10: 8</title></rect><rect x="422" y="146" width="11" height="11" rx="2" fill="#1e4d1e"><title>2026-04-11: 2</title></rect><rect x="436" y="62" width="11" height="11" rx="2" fill="#122012"><title>2026-04-12: 0</title></rect><rect x="436" y="76" width="11" height="11" rx="2" fill="#122012"><title>2026-04-13: 0</title></rect><rect x="436" y="90" width="11" height="11" rx="2" fill="#1e4d1e"><title>2026-04-14: 1</title></rect><rect x="436" y="104" width="11" height="11" rx="2" fill="#1e4d1e"><title>2026-04-15: 2</title></rect><rect x="436" y="118" width="11" height="11" rx="2" fill="#2f7d2f"><title>2026-04-16: 3</title></rect><rect x="436" y="132" width="11" height="11" rx="2" fill="#4fbf4f"><title>2026-04-17: 5</title></rect><rect x="436" y="146" width="11" height="11" rx="2" fill="#1e4d1e"><title>2026-04-18: 2</title></rect><rect x="450" y="62" width="11" height="11" rx="2" fill="#122012"><title>2026-04-19: 0</title></rect><rect x="450" y="76" width="11" height="11" rx="2" fill="#122012"><title>2026-04-20: 0</title></rect><rect x="450" y="90" width="11" height="11" rx="2" fill="#7dff7d"><title>2026-04-21: 8</title></rect><rect x="450" y="104" width="11" height="11" rx="2" fill="#1e4d1e"><title>2026-04-22: 1</title></rect><rect x="450" y="118" width="11" height="11" rx="2" fill="#122012"><title>2026-04-23: 0</title></rect><rect x="450" y="132" width="11" height="11" rx="2" fill="#122012"><title>2026-04-24: 0</title></rect><rect x="450" y="146" width="11" height="11" rx="2" fill="#1e4d1e"><title>2026-04-25: 2</title></rect><rect x="464" y="62" width="11" height="11" rx="2" fill="#1e4d1e"><title>2026-04-26: 2</title></rect><rect x="464" y="76" width="11" height="11" rx="2" fill="#1e4d1e"><title>2026-04-27: 1</title></rect><rect x="464" y="90" width="11" height="11" rx="2" fill="#122012"><title>2026-04-28: 0</title></rect><rect x="464" y="104" width="11" height="11" rx="2" fill="#1e4d1e"><title>2026-04-29: 1</title></rect><rect x="464" y="118" width="11" height="11" rx="2" fill="#1e4d1e"><title>2026-04-30: 1</title></rect><rect x="464" y="132" width="11" height="11" rx="2" fill="#1e4d1e"><title>2026-05-01: 1</title></rect><rect x="464" y="146" width="11" height="11" rx="2" fill="#1e4d1e"><title>2026-05-02: 2</title></rect><rect x="478" y="62" width="11" height="11" rx="2" fill="#4fbf4f"><title>2026-05-03: 5</title></rect><rect x="478" y="76" width="11" height="11" rx="2" fill="#122012"><title>2026-05-04: 0</title></rect><rect x="478" y="90" width="11" height="11" rx="2" fill="#4fbf4f"><title>2026-05-05: 5</title></rect><rect x="478" y="104" width="11" height="11" rx="2" fill="#122012"><title>2026-05-06: 0</title></rect><rect x="478" y="118" width="11" height="11" rx="2" fill="#4fbf4f"><title>2026-05-07: 5</title></rect><rect x="478" y="132" width="11" height="11" rx="2" fill="#7dff7d"><title>2026-05-08: 8</title></rect><rect x="478" y="146" width="11" height="11" rx="2" fill="#2f7d2f"><title>2026-05-09: 3</title></rect><rect x="492" y="62" width="11" height="11" rx="2" fill="#122012"><title>2026-05-10: 0</title></rect><rect x="492" y="76" width="11" height="11" rx="2" fill="#7dff7d"><title>2026-05-11: 8</title></rect><rect x="492" y="90" width="11" height="11" rx="2" fill="#2f7d2f"><title>2026-05-12: 3</title></rect><rect x="492" y="104" width="11" height="11" rx="2" fill="#2f7d2f"><title>2026-05-13: 3</title></rect><rect x="492" y="118" width="11" height="11" rx="2" fill="#1e4d1e"><title>2026-05-14: 1</title></rect><rect x="492" y="132" width="11" height="11" rx="2" fill="#2f7d2f"><title>2026-05-15: 3</title></rect><rect x="492" y="146" width="11" height="11" rx="2" fill="#122012"><title>2026-05-16: 0</title></rect><rect x="506" y="62" width="11" height="11" rx="2" fill="#1e4d1e"><title>2026-05-17: 2</title></rect><rect x="506" y="76" width="11" height="11" rx="2" fill="#122012"><title>2026-05-18: 0</title></rect><rect x="506" y="90" width="11" height="11" rx="2" fill="#1e4d1e"><title>2026-05-19: 1</title></rect><rect x="506" y="104" width="11" height="11" rx="2" fill="#122012"><title>2026-05-20: 0</title></rect><rect x="506" y="118" width="11" height="11" rx="2" fill="#122012"><title>2026-05-21: 0</title></rect><rect x="506" y="132" width="11" height="11" rx="2" fill="#1e4d1e"><title>2026-05-22: 2</title></rect><rect x="506" y="146" width="11" height="11" rx="2" fill="#122012"><title>2026-05-23: 0</title></rect><rect x="520" y="62" width="11" height="11" rx="2" fill="#1e4d1e"><title>2026-05-24: 2</title></rect><rect x="520" y="76" width="11" height="11" rx="2" fill="#7dff7d"><title>2026-05-25: 8</title></rect><rect x="520" y="90" width="11" height="11" rx="2" fill="#4fbf4f"><title>2026-05-26: 5</title></rect><rect x="520" y="104" width="11" height="11" rx="2" fill="#122012"><title>2026-05-27: 0</title></rect><rect x="520" y="118" width="11" height="11" rx="2" fill="#2f7d2f"><title>2026-05-28: 3</title></rect><rect x="520" y="132" width="11" height="11" rx="2" fill="#1e4d1e"><title>2026-05-29: 1</title></rect><rect x="520" y="146" width="11" height="11" rx="2" fill="#1e4d1e"><title>2026-05-30: 1</title></rect><rect x="534" y="62" width="11" height="11" rx="2" fill="#2f7d2f"><title>2026-05-31: 3</title></rect><rect x="534" y="76" width="11" height="11" rx="2" fill="#122012"><title>2026-06-01: 0</title></rect><rect x="534" y="90" width="11" height="11" rx="2" fill="#122012"><title>2026-06-02: 0</title></rect><rect x="534" y="104" width="11" height="11" rx="2" fill="#4fbf4f"><title>2026-06-03: 5</title></rect><rect x="534" y="118" width="11" height="11" rx="2" fill="#7dff7d"><title>2026-06-04: 8</title></rect><rect x="534" y="132" width="11" height="11" rx="2" fill="#122012"><title>2026-06-05: 0</title></rect><rect x="534" y="146" width="11" height="11" rx="2" fill="#2f7d2f"><title>2026-06-06: 3</title></rect><rect x="548" y="62" width="11" height="11" rx="2" fill="#1e4d1e"><title>2026-06-07: 2</title></rect><rect x="548" y="76" width="11" height="11" rx="2" fill="#1e4d1e"><title>2026-06-08: 1</title></rect><rect x="548" y="90" width="11" height="11" rx="2" fill="#122012"><title>2026-06-09: 0</title></rect><rect x="548" y="104" width="11" height="11" rx="2" fill="#2f7d2f"><title>2026-06-10: 3</title></rect><rect x="548" y="118" width="11" height="11" rx="2" fill="#7dff7d"><title>2026-06-11: 8</title></rect><rect x="548" y="132" width="11" height="11" rx="2" fill="#1e4d1e"><title>2026-06-12: 2</title></rect><rect x="548" y="146" width="11" height="11" rx="2" fill="#122012"><title>2026-06-13: 0</title></rect><rect x="562" y="62" width="11" height="11" rx="2" fill="#122012"><title>2026-06-14: 0</title></rect><rect x="562" y="76" width="11" height="11" rx="2" fill="#122012"><title>2026-06-15: 0</title></rect><rect x="562" y="90" width="11" height="11" rx="2" fill="#1e4d1e"><title>2026-06-16: 1</title></rect><rect x="562" y="104" width="11" height="11" rx="2" fill="#4fbf4f"><title>2026-06-17: 5</title></rect><rect x="562" y="118" width="11" height="11" rx="2" fill="#122012"><title>2026-06-18: 0</title></rect><rect x="562" y="132" width="11" height="11" rx="2" fill="#122012"><title>2026-06-19: 0</title></rect><rect x="562" y="146" width="11" height="11" rx="2" fill="#122012"><title>2026-06-20: 0</title></rect><rect x="576" y="62" width="11" height="11" rx="2" fill="#122012"><title>2026-06-21: 0</title></rect><rect x="576" y="76" width="11" height="11" rx="2" fill="#1e4d1e"><title>2026-06-22: 2</title></rect><rect x="576" y="90" width="11" height="11" rx="2" fill="#7dff7d"><title>2026-06-23: 8</title></rect><rect x="576" y="104" width="11" height="11" rx="2" fill="#1e4d1e"><title>2026-06-24: 1</title></rect><rect x="576" y="118" width="11" height="11" rx="2" fill="#122012"><title>2026-06-25: 0</title></rect><rect x="576" y="132" width="11" height="11" rx="2" fill="#7dff7d"><title>2026-06-26: 8</title></rect><rect x="576" y="146" width="11" height="11" rx="2" fill="#122012"><title>2026-06-27: 0</title></rect><rect x="590" y="62" width="11" height="11" rx="2" fill="#122012"><title>2026-06-28: 0</title></rect><rect x="590" y="76" width="11" height="11" rx="2" fill="#1e4d1e"><title>2026-06-29: 1</title></rect><rect x="590" y="90" width="11" height="11" rx="2" fill="#122012"><title>2026-06-30: 0</title></rect><rect x="590" y="104" width="11" height="11" rx="2" fill="#7dff7d"><title>2026-07-01: 8</title></rect><rect x="590" y="118" width="11" height="11" rx="2" fill="#1e4d1e"><title>2026-07-02: 1</title></rect><rect x="590" y="132" width="11" height="11" rx="2" fill="#122012"><title>2026-07-03: 0</title></rect><rect x="590" y="146" width="11" height="11" rx="2" fill="#122012"><title>2026-07-04: 0</title></rect><rect x="604" y="62" width="11" height="11" rx="2" fill="#122012"><title>2026-07-05: 0</title></rect><rect x="604" y="76" width="11" height="11" rx="2" fill="#4fbf4f"><title>2026-07-06: 5</title></rect><rect x="604" y="90" width="11" height="11" rx="2" fill="#2f7d2f"><title>2026-07-07: 3</title></rect><rect x="604" y="104" width="11" height="11" rx="2" fill="#122012"><title>2026-07-08: 0</title></rect><rect x="604" y="118" width="11" height="11" rx="2" fill="#4fbf4f"><title>2026-07-09: 5</title></rect><rect x="604" y="132" width="11" height="11" rx="2" fill="#122012"><title>2026-07-10: 0</title></rect><rect x="604" y="146" width="11" height="11" rx="2" fill="#122012"><title>2026-07-11: 0</title></rect><rect x="618" y="62" width="11" height="11" rx="2" fill="#1e4d1e"><title>2026-07-12: 1</title></rect><rect x="618" y="76" width="11" height="11" rx="2" fill="#7dff7d"><title>2026-07-13: 8</title></rect><rect x="618" y="90" width="11" height="11" rx="2" fill="#122012"><title>2026-07-14: 0</title></rect><rect x="618" y="104" width="11" height="11" rx="2" fill="#1e4d1e"><title>2026-07-15: 2</title></rect><rect x="618" y="118" width="11" height="11" rx="2" fill="#122012"><title>2026-07-16: 0</title></rect><rect x="618" y="132" width="11" height="11" rx="2" fill="#122012"><title>2026-07-17: 0</title></rect><rect x="618" y="146" width="11" height="11" rx="2" fill="#122012"><title>2026-07-18: 0</title></rect><rect x="632" y="62" width="11" height="11" rx="2" fill="#122012"><title>2026-07-19: 0</title></rect><rect x="632" y="76" width="11" height="11" rx="2" fill="#122012"><title>2026-07-20: 0</title></rect><rect x="632" y="90" width="11" height="11" rx="2" fill="#122012"><title>2026-07-21: 0</title></rect><rect x="632" y="104" width="11" height="11" rx="2" fill="#1e4d1e"><title>2026-07-22: 2</title></rect><rect x="632" y="118" width="11" height="11" rx="2" fill="#122012"><title>2026-07-23: 0</title></rect><rect x="632" y="132" width="11" height="11" rx="2" fill="#1e4d1e"><title>2026-07-24: 1</title></rect><rect x="632" y="146" width="11" height="11" rx="2" fill="#7dff7d"><title>2026-07-25: 8</title></rect><rect x="646" y="62" width="11" height="11" rx="2" fill="#122012"><title>2026-07-26: 0</title></rect><rect x="646" y="76" width="11" height="11" rx="2" fill="#4fbf4f"><title>2026-07-27: 5</title></rect><rect x="646" y="90" width="11" height="11" rx="2" fill="#1e4d1e"><title>2026-07-28: 1</title></rect><rect x="646" y="104" width="11" height="11" rx="2" fill="#1e4d1e"><title>2026-07-29: 2</title></rect><rect x="646" y="118" width="11" height="11" rx="2" fill="#1e4d1e"><title>2026-07-30: 2</title></rect><rect x="646" y="132" width="11" height="11" rx="2" fill="#4fbf4f"><title>2026-07-31: 5</title></rect><rect x="646" y="146" width="11" height="11" rx="2" fill="#1e4d1e"><title>2026-08-01: 2</title></rect><rect x="660" y="62" width="11" height="11" rx="2" fill="#1e4d1e"><title>2026-08-02: 2</title></rect><rect x="660" y="76" width="11" height="11" rx="2" fill="#1e4d1e"><title>2026-08-03: 2</title></rect><rect x="660" y="90" width="11" height="11" rx="2" fill="#7dff7d"><title>2026-08-04: 8</title></rect><rect x="660" y="104" width="11" height="11" rx="2" fill="#1e4d1e"><title>2026-08-05: 1</title></rect><rect x="660" y="118" width="11" height="11" rx="2" fill="#122012"><title>2026-08-06: 0</title></rect><rect x="660" y="132" width="11" height="11" rx="2" fill="#122012"><title>2026-08-07: 0</title></rect><rect x="660" y="146" width="11" height="11" rx="2" fill="#2f7d2f"><title>2026-08-08: 3</title></rect><rect x="674" y="62" width="11" height="11" rx="2" fill="#7dff7d"><title>2026-08-09: 8</title></rect><rect x="674" y="76" width="11" height="11" rx="2" fill="#1e4d1e"><title>2026-08-10: 1</title></rect><rect x="674" y="90" width="11" height="11" rx="2" fill="#7dff7d"><title>2026-08-11: 8</title></rect><rect x="674" y="104" width="11" height="11" rx="2" fill="#1e4d1e"><title>2026-08-12: 1</title></rect><rect x="674" y="118" width="11" height="11" rx="2" fill="#1e4d1e"><title>2026-08-13: 2</title></rect><rect x="674" y="132" width="11" height="11" rx="2" fill="#4fbf4f"><title>2026-08-14: 5</title></rect><rect x="674" y="146" width="11" height="11" rx="2" fill="#1e4d1e"><title>2026-08-15: 2</title></rect><rect x="688" y="62" width="11" height="11" rx="2" fill="#7dff7d"><title>2026-08-16: 8</title></rect><rect x="688" y="76" width="11" height="11" rx="2" fill="#122012"><title>2026-08-17: 0</title></rect><rect x="688" y="90" width="11" height="11" rx="2" fill="#2f7d2f"><title>2026-08-18: 3</title></rect><rect x="688" y="104" width="11" height="11" rx="2" fill="#2f7d2f"><title>2026-08-19: 3</title></rect><rect x="688" y="118" width="11" height="11" rx="2" fill="#122012"><title>2026-08-20: 0</title></rect><rect x="688" y="132" width="11" height="11" rx="2" fill="#4fbf4f"><title>2026-08-21: 5</title></rect><rect x="688" y="146" width="11" height="11" rx="2" fill="#7dff7d"><title>2026-08-22: 8</title></rect><rect x="702" y="62" width="11" height="11" rx="2" fill="#1e4d1e"><title>2026-08-23: 1</title></rect><rect x="702" y="76" width="11" height="11" rx="2" fill="#122012"><title>2026-08-24: 0</title></rect><rect x="702" y="90" width="11" height="11" rx="2" fill="#1e4d1e"><title>2026-08-25: 1</title></rect><rect x="702" y="104" width="11" height="11" rx="2" fill="#2f7d2f"><title>2026-08-26: 3</title></rect><rect x="702" y="118" width="11" height="11" rx="2" fill="#2f7d2f"><title>2026-08-27: 3</title></rect><rect x="702" y="132" width="11" height="11" rx="2" fill="#4fbf4f"><title>2026-08-28: 5</title></rect><rect x="702" y="146" width="11" height="11" rx="2" fill="#4fbf4f"><title>2026-08-29: 5</title></rect><rect x="716" y="62" width="11" height="11" rx="2" fill="#1e4d1e"><title>2026-08-30: 2</title></rect><rect x="716" y="76" width="11" height="11" rx="2" fill="#122012"><title>2026-08-31: 0</title></rect><rect x="716" y="90" width="11" height="11" rx="2" fill="#122012"><title>2026-09-01: 0</title></rect><rect x="716" y="104" width="11" height="11" rx="2" fill="#4fbf4f"><title>2026-09-02: 5</title></rect><rect x="716" y="118" width="11" height="11" rx="2" fill="#122012"><title>2026-09-03: 0</title></rect><rect x="716" y="132" width="11" height="11" rx="2" fill="#4fbf4f"><title>2026-09-04: 5</title></rect><rect x="716" y="146" width="11" height="11" rx="2" fill="#1e4d1e"><title>2026-09-05: 2</title></rect><rect x="730" y="62" width="11" height="11" rx="2" fill="#122012"><title>2026-09-06: 0</title></rect><rect x="730" y="76" width="11" height="11" rx="2" fill="#4fbf4f"><title>2026-09-07: 5</title></rect><rect x="730" y="90" width="11" height="11" rx="2" fill="#1e4d1e"><title>2026-09-08: 1</title></rect><rect x="730" y="104" width="11" height="11" rx="2" fill="#122012"><title>2026-09-09: 0</title></rect><rect x="730" y="118" width="11" height="11" rx="2" fill="#1e4d1e"><title>2026-09-10: 1</title></rect><rect x="730" y="132" width="11" height="11" rx="2" fill="#122012"><title>2026-09-11: 0</title></rect><rect x="730" y="146" width="11" height="11" rx="2" fill="#4fbf4f"><title>2026-09-12: 5</title></rect><rect x="744" y="62" width="11" height="11" rx="2" fill="#4fbf4f"><title>2026-09-13: 5</title></rect><rect x="744" y="76" width="11" height="11" rx="2" fill="#4fbf4f"><title>2026-09-14: 5</title></rect><rect x="744" y="90" width="11" height="11" rx="2" fill="#122012"><title>2026-09-15: 0</title></rect><rect x="744" y="104" width="11" height="11" rx="2" fill="#4fbf4f"><title>2026-09-16: 5</title></rect><rect x="744" y="118" width="11" height="11" rx="2" fill="#1e4d1e"><title>2026-09-17: 2</title></rect><rect x="744" y="132" width="11" height="11" rx="2" fill="#1e4d1e"><title>2026-09-18: 2</title></rect><rect x="744" y="146" width="11" height="11" rx="2" fill="#2f7d2f"><title>2026-09-19: 3</title></rect><rect x="758" y="62" width="11" height="11" rx="2" fill="#1e4d1e"><title>2026-09-20: 2</title></rect><rect x="758" y="76" width="11" height="11" rx="2" fill="#1e4d1e"><title>2026-09-21: 1</title></rect><rect x="758" y="90" width="11" height="11" rx="2" fill="#1e4d1e"><title>2026-09-22: 1</title></rect><rect x="758" y="104" width="11" height="11" rx="2" fill="#4fbf4f"><title>2026-09-23: 5</title></rect><rect x="758" y="118" width="11" height="11" rx="2" fill="#1e4d1e"><title>2026-09-24: 1</title></rect><rect x="758" y="132" width="11" height="11" rx="2" fill="#122012"><title>2026-09-25: 0</title></rect><rect x="758" y="146" width="11" height="11" rx="2" fill="#7dff7d"><title>2026-09-26: 8</title></rect><rect x="772" y="62" width="11" height="11" rx="2" fill="#7dff7d"><title>2026-09-27: 8</title></rect><rect x="772" y="76" width="11" height="11" rx="2" fill="#1e4d1e"><title>2026-09-28: 1</title></rect><rect x="772" y="90" width="11" height="11" rx="2" fill="#4fbf4f"><title>2026-09-29: 5</title></rect><rect x="772" y="104" width="11" height="11" rx="2" fill="#7dff7d"><title>2026-09-30: 8</title></rect>
</svg>
